HIERARCHY
ROOT Hips
{
	OFFSET 0.000000 0.000000 0.000000
	CHANNELS 6 Xposition Yposition Zposition Xrotation Yrotation Zrotation
	JOINT LeftUpLeg_virtual
	{
		OFFSET 0.000000 0.000000 0.000000
		CHANNELS 3 Xrotation Yrotation Zrotation
		JOINT LeftUpLeg
		{
			OFFSET 15.427100 -6.655098 0.678600
			CHANNELS 3 Xrotation Yrotation Zrotation
			JOINT LeftLeg
			{
				OFFSET 4.081073 -39.591068 13.024000
				CHANNELS 3 Xrotation Yrotation Zrotation
				JOINT LeftFoot
				{
					OFFSET -4.081074 -37.707932 -15.979700
					CHANNELS 3 Xrotation Yrotation Zrotation
					JOINT LeftToeBase
					{
						OFFSET 5.346399 -15.068900 20.645000
						CHANNELS 3 Xrotation Yrotation Zrotation
						JOINT LeftToe_End
						{
							OFFSET 2.754700 0.931300 11.300900
							CHANNELS 3 Xrotation Yrotation Zrotation
							End Site
							{
								OFFSET 0 0 0
							}
						}
					}
				}
			}
		}
	}
	JOINT RightUpLeg_virtual
	{
		OFFSET 0.000000 0.000000 0.000000
		CHANNELS 3 Xrotation Yrotation Zrotation
		JOINT RightUpLeg
		{
			OFFSET -15.569500 -6.655098 0.678600
			CHANNELS 3 Xrotation Yrotation Zrotation
			JOINT RightLeg
			{
				OFFSET -4.081825 -39.591045 13.023800
				CHANNELS 3 Xrotation Yrotation Zrotation
				JOINT RightFoot
				{
					OFFSET 4.081824 -37.707954 -15.979600
					CHANNELS 3 Xrotation Yrotation Zrotation
					JOINT RightToeBase
					{
						OFFSET -5.346400 -15.068900 20.645000
						CHANNELS 3 Xrotation Yrotation Zrotation
						JOINT RightToe_End
						{
							OFFSET -2.754700 0.931300 11.300900
							CHANNELS 3 Xrotation Yrotation Zrotation
							End Site
							{
								OFFSET 0 0 0
							}
						}
					}
				}
			}
		}
	}
	JOINT Spine_virtual
	{
		OFFSET 0.000000 0.000000 0.000000
		CHANNELS 3 Xrotation Yrotation Zrotation
		JOINT Spine
		{
			OFFSET -0.279200 12.230698 -2.892100
			CHANNELS 3 Xrotation Yrotation Zrotation
			JOINT Spine1
			{
				OFFSET -0.232667 10.192268 -1.242267
				CHANNELS 3 Xrotation Yrotation Zrotation
				JOINT Spine1_split
				{
					OFFSET -0.232667 10.192268 -1.242267
					CHANNELS 3 Xrotation Yrotation Zrotation
					JOINT Spine2
					{
						OFFSET -0.232667 10.192268 -1.242267
						CHANNELS 3 Xrotation Yrotation Zrotation
						JOINT Neck_virtual
						{
							OFFSET 0.000000 0.000000 0.000000
							CHANNELS 3 Xrotation Yrotation Zrotation
							JOINT Neck
							{
								OFFSET -0.418800 17.814194 8.416900
								CHANNELS 3 Xrotation Yrotation Zrotation
								JOINT Head
								{
									OFFSET 0.000000 7.031097 3.806800
									CHANNELS 3 Xrotation Yrotation Zrotation
									JOINT HeadTop_End
									{
										OFFSET 0.000000 24.646606 12.978600
										CHANNELS 3 Xrotation Yrotation Zrotation
										End Site
										{
											OFFSET 0 0 0
										}
									}
								}
							}
						}
						JOINT LeftShoulder_virtual
						{
							OFFSET 0.000000 0.000000 0.000000
							CHANNELS 3 Xrotation Yrotation Zrotation
							JOINT LeftShoulder
							{
								OFFSET 8.476499 7.247704 -3.868750
								CHANNELS 3 Xrotation Yrotation Zrotation
								JOINT LeftShoulder_split
								{
									OFFSET 8.476499 7.247704 -3.868750
									CHANNELS 3 Xrotation Yrotation Zrotation
									JOINT LeftArm
									{
										OFFSET 9.308998 -2.777710 0.208600
										CHANNELS 3 Xrotation Yrotation Zrotation
										JOINT LeftForeArm
										{
											OFFSET 29.972298 0.000000 0.000000
											CHANNELS 3 Xrotation Yrotation Zrotation
											JOINT LeftHand
											{
												OFFSET 26.026505 0.000000 0.000000
												CHANNELS 3 Xrotation Yrotation Zrotation
												End Site
												{
													OFFSET 0 0 0
												}
											}
										}
									}
								}
							}
						}
						JOINT RightShoulder_virtual
						{
							OFFSET 0.000000 0.000000 0.000000
							CHANNELS 3 Xrotation Yrotation Zrotation
							JOINT RightShoulder
							{
								OFFSET -7.570500 7.247704 -3.868750
								CHANNELS 3 Xrotation Yrotation Zrotation
								JOINT RightShoulder_split
								{
									OFFSET -7.570500 7.247704 -3.868750
									CHANNELS 3 Xrotation Yrotation Zrotation
									JOINT RightArm
									{
										OFFSET -9.308998 -2.777710 0.208500
										CHANNELS 3 Xrotation Yrotation Zrotation
										JOINT RightForeArm
										{
											OFFSET -29.972300 0.000000 0.000000
											CHANNELS 3 Xrotation Yrotation Zrotation
											JOINT RightHand
											{
												OFFSET -26.026505 0.000000 0.000000
												CHANNELS 3 Xrotation Yrotation Zrotation
												End Site
												{
													OFFSET 0 0 0
												}
											}
										}
									}
								}
							}
						}
					}
				}
			}
		}
	}
}
MOTION
Frames: 4
Frame Time: 0.03333333
-2.859423 68.614365 5.640968 0.000000 0.000000 0.000000 9.196658 55.316643 -1.949505 -77.099879 -9.483432 -34.196517 48.154831 -5.375146 0.934340 22.213611 -25.483689 1.260013 -7.075674 4.426068 3.289437 0.000000 0.000000 0.000000 11.058624 53.908303 -3.350763 35.126536 -32.747547 8.675202 31.089249 26.682498 1.612230 -41.156415 -16.432496 -5.763007 -26.967265 5.630644 -9.230565 0.000000 0.000000 0.000000 16.307362 60.187087 -9.196614 8.941115 15.835799 -5.281751 6.033728 11.107532 0.803828 0.453562 0.111655 0.008489 0.000000 0.000000 0.000000 5.231903 13.353549 -0.325139 15.941407 -22.480111 24.313855 149.624474 -76.502913 -169.946636 0.000000 0.000000 0.000000 5.637842 11.581182 -1.114687 1.126868 -4.934145 7.809224 -3.387887 -2.291874 -2.505251 -40.686225 6.888367 -34.412235 66.569558 -14.066893 33.180844 0.000000 0.000000 0.000000 8.387731 12.664520 -1.512314 -4.082477 -9.717689 -19.308468 -4.327991 2.817455 6.257199 -33.207591 2.655759 1.206555 -19.247777 19.458270 0.968851 0.000000 0.000000 0.000000 
-2.500000 68.354355 5.911564 0.000000 0.000000 0.000000 9.681823 53.363298 -2.296674 -77.042130 -10.454483 -33.511568 48.427359 -5.154296 -0.036834 20.357635 -24.078326 0.970816 -6.570088 4.220940 3.392331 0.000000 0.000000 0.000000 11.697096 51.886143 -3.681211 33.907880 -32.995694 7.341689 31.815837 27.300421 1.291519 -41.521359 -15.836434 -6.105517 -26.449918 5.548778 -8.594630 0.000000 0.000000 0.000000 16.582040 57.888934 -9.157679 9.023540 15.308346 -5.630583 6.294302 11.619893 1.079998 0.382573 0.057144 -0.031387 0.000000 0.000000 0.000000 5.083478 13.730380 0.031223 16.457734 -21.298642 23.893822 166.089246 -74.143671 -151.979796 0.000000 0.000000 0.000000 5.467085 12.034243 -0.999564 1.265315 -3.408419 6.880848 -3.045604 -2.318013 -1.924374 -35.465327 10.796665 -31.950331 69.311920 -17.078453 36.330217 0.000000 0.000000 0.000000 8.275263 13.205122 -1.218081 -4.669127 -8.181877 -19.203420 -5.781516 2.746010 5.677491 -36.421092 0.885562 1.537001 -21.283807 22.277734 4.975495 0.000000 0.000000 0.000000 
-2.024522 68.238609 6.143040 0.000000 0.000000 0.000000 9.801819 50.659540 -2.370549 -76.553867 -11.235516 -32.182642 49.265611 -5.376244 -0.909438 19.000690 -23.055701 0.397407 -6.416798 3.801351 4.264684 0.000000 0.000000 0.000000 11.941497 49.056686 -3.674838 31.833616 -33.028558 5.285741 32.435677 28.128363 0.893795 -41.116345 -15.730262 -5.696796 -26.415258 5.392756 -7.981739 0.000000 0.000000 0.000000 16.255032 55.068721 -8.751907 8.933072 14.677894 -5.587093 6.544157 12.182163 1.262081 0.249179 0.089042 -0.116931 0.000000 0.000000 0.000000 5.195526 14.193732 0.322820 16.404945 -20.407289 23.414438 178.330679 -72.483839 -139.126691 0.000000 0.000000 0.000000 5.255023 12.654266 -0.943769 1.334112 -1.883933 6.162868 -2.983490 -3.055690 -1.265398 -30.220650 16.713162 -29.160092 71.923026 -20.050604 39.785736 0.000000 0.000000 0.000000 8.233448 13.907106 -0.927909 -5.398266 -6.623228 -18.722259 -7.010518 3.524894 4.850815 -42.071674 0.031673 2.687542 -23.203000 23.125637 8.622709 0.000000 0.000000 0.000000 
-1.456307 68.315125 6.261745 0.000000 0.000000 0.000000 9.708778 47.082471 -2.158431 -75.554890 -11.513155 -30.150784 50.177312 -5.640846 -1.768996 18.016810 -22.133295 0.474286 -5.930176 3.208208 5.573809 0.000000 0.000000 0.000000 11.848618 45.581892 -3.341225 29.001806 -32.595548 2.599760 33.411397 29.132598 0.296058 -39.753245 -16.214755 -4.196864 -27.890212 5.183682 -7.291490 0.000000 0.000000 0.000000 15.367384 51.535792 -7.909368 8.721463 13.972219 -5.048309 6.749668 12.626674 1.254199 0.101708 0.197570 -0.138434 0.000000 0.000000 0.000000 5.446376 14.590613 0.444291 16.059083 -19.451682 22.727955 -169.654768 -71.839424 -127.238897 0.000000 0.000000 0.000000 5.030281 13.229734 -1.018972 1.332127 -0.059731 5.692480 -3.009519 -4.295503 -0.671103 -24.981880 24.137977 -26.845254 74.143247 -22.780808 43.330983 0.000000 0.000000 0.000000 8.315338 14.553801 -0.778928 -6.158772 -5.248897 -17.624067 -7.634301 4.953426 3.803965 -48.586144 0.975051 4.810339 -24.357414 21.789726 11.144206 0.000000 0.000000 0.000000 
